<?xml version="1.0" encoding="iso-8859-1"?>
<!-- Generator: Adobe Illustrator 19.0.0, SVG Export Plug-In . SVG Version: 6.00 Build 0)  -->
<svg version="1.1" id="Layer_1" xmlns="http://www.w3.org/2000/svg" xmlns:xlink="http://www.w3.org/1999/xlink" x="0px" y="0px"
	 viewBox="0 0 512.003 512.003" style="enable-background:new 0 0 512.003 512.003;" xml:space="preserve">
<g>
	<g>
		<g>
			<path d="M311.726,170.077c-3.942-2.569-9.242-1.442-11.81,2.5c-2.569,3.959-1.442,9.242,2.509,11.81
				c12.604,8.183,22.869,19.575,29.679,32.947c1.493,2.953,4.497,4.651,7.603,4.651c1.306,0,2.628-0.29,3.866-0.922
				c4.207-2.142,5.871-7.279,3.729-11.486C339.135,193.552,326.838,179.891,311.726,170.077z"/>
			<path d="M187.736,452.266c0,4.719,3.814,8.533,8.533,8.533h187.733c4.71,0,8.533-3.814,8.533-8.533
				c0-4.71-3.823-8.533-8.533-8.533H196.27C191.551,443.733,187.736,447.556,187.736,452.266z"/>
			<path d="M314.781,114.099c1.067,0.444,2.176,0.657,3.268,0.657c3.345,0,6.528-1.988,7.885-5.274l13.056-31.539
				c1.8-4.361-0.265-9.353-4.617-11.153c-4.326-1.783-9.335,0.265-11.145,4.625l-13.065,31.539
				C308.364,107.315,310.437,112.298,314.781,114.099z"/>
			<path d="M340.935,51.037c1.058,0.444,2.159,0.648,3.243,0.648c3.345,0,6.536-1.997,7.893-5.291l14.225-34.611
				c1.784-4.369-0.299-9.353-4.651-11.136c-4.326-1.792-9.344,0.282-11.136,4.642l-14.225,34.611
				C334.493,44.262,336.575,49.245,340.935,51.037z"/>
			<path d="M93.87,443.733c-4.719,0-8.533,3.823-8.533,8.533c0,4.719,3.814,8.533,8.533,8.533h68.267
				c4.71,0,8.533-3.814,8.533-8.533c0-4.71-3.823-8.533-8.533-8.533H93.87z"/>
			<path d="M247.47,392.533H59.736c-4.719,0-8.533,3.823-8.533,8.533c0,4.719,3.814,8.533,8.533,8.533H247.47
				c4.71,0,8.533-3.814,8.533-8.533C256.003,396.356,252.18,392.533,247.47,392.533z"/>
			<path d="M418.136,247.466c-4.719,0-8.533,3.823-8.533,8.533c0,4.719,3.814,8.533,8.533,8.533h68.267
				c4.71,0,8.533-3.814,8.533-8.533c0-4.71-3.823-8.533-8.533-8.533H418.136z"/>
			<path d="M365.298,323.191c4.198,2.21,9.327,0.597,11.537-3.558c10.266-19.464,15.701-41.472,15.701-63.633
				c0-75.281-61.252-136.533-136.533-136.533c-75.29,0-136.533,61.252-136.533,136.533c0,22.4,5.547,44.629,16.043,64.273
				c1.527,2.876,4.48,4.514,7.526,4.514c1.365,0,2.739-0.324,4.011-1.007c4.156-2.219,5.734-7.39,3.507-11.546
				c-9.173-17.178-14.02-36.625-14.02-56.235c0-65.869,53.589-119.467,119.467-119.467c65.869,0,119.467,53.598,119.467,119.467
				c0,19.396-4.753,38.648-13.739,55.663C359.538,315.835,361.134,320.998,365.298,323.191z"/>
			<path d="M468.859,176.375c1.084,0,2.184-0.213,3.243-0.649l34.611-14.234c4.361-1.792,6.434-6.775,4.651-11.136
				c-1.792-4.361-6.784-6.426-11.136-4.642l-34.611,14.234c-4.369,1.784-6.443,6.776-4.651,11.136
				C462.322,174.378,465.505,176.375,468.859,176.375z"/>
			<path d="M397.912,197.23c1.357,3.285,4.54,5.265,7.876,5.265c1.092,0,2.202-0.213,3.268-0.649l31.539-13.073
				c4.344-1.801,6.417-6.793,4.617-11.145c-1.809-4.361-6.81-6.409-11.153-4.617l-31.531,13.065
				C398.177,187.878,396.112,192.87,397.912,197.23z"/>
			<path d="M367.636,148.642c1.664,1.664,3.849,2.5,6.033,2.5c2.185,0,4.369-0.836,6.033-2.5l42.231-42.24
				c3.337-3.337,3.337-8.73,0-12.066s-8.73-3.337-12.066,0l-42.232,42.24C364.3,139.903,364.3,145.305,367.636,148.642z"/>
			<path d="M71.41,188.774l31.539,13.073c1.067,0.435,2.176,0.649,3.268,0.649c3.345,0,6.528-1.988,7.885-5.265
				c1.801-4.361-0.265-9.353-4.617-11.153l-31.539-13.065c-4.335-1.801-9.353,0.265-11.153,4.617S67.058,186.973,71.41,188.774z"/>
			<path d="M213.336,494.933h-153.6c-4.719,0-8.533,3.823-8.533,8.533c0,4.719,3.814,8.533,8.533,8.533h153.6
				c4.71,0,8.533-3.814,8.533-8.533C221.87,498.756,218.047,494.933,213.336,494.933z"/>
			<path d="M119.47,349.866c0-4.71-3.823-8.533-8.533-8.533H8.536c-4.719,0-8.533,3.823-8.533,8.533
				c0,4.719,3.814,8.533,8.533,8.533h102.4C115.647,358.399,119.47,354.585,119.47,349.866z"/>
			<path d="M418.136,494.933H247.47c-4.719,0-8.533,3.823-8.533,8.533c0,4.719,3.814,8.533,8.533,8.533h170.667
				c4.71,0,8.533-3.814,8.533-8.533C426.67,498.756,422.847,494.933,418.136,494.933z"/>
			<path d="M503.47,341.333h-358.4c-4.719,0-8.533,3.823-8.533,8.533c0,4.719,3.814,8.533,8.533,8.533h358.4
				c4.71,0,8.533-3.814,8.533-8.533C512.003,345.156,508.18,341.333,503.47,341.333z"/>
			<path d="M256.003,102.399c4.71,0,8.533-3.814,8.533-8.533V34.133c0-4.71-3.823-8.533-8.533-8.533
				c-4.719,0-8.533,3.823-8.533,8.533v59.733C247.47,98.585,251.284,102.399,256.003,102.399z"/>
			<path d="M469.336,392.533H281.603c-4.719,0-8.533,3.823-8.533,8.533c0,4.719,3.814,8.533,8.533,8.533h187.733
				c4.71,0,8.533-3.814,8.533-8.533C477.87,396.356,474.047,392.533,469.336,392.533z"/>
			<path d="M159.952,46.387c1.357,3.302,4.54,5.291,7.893,5.291c1.084,0,2.185-0.205,3.251-0.64
				c4.352-1.801,6.426-6.784,4.634-11.136L161.496,5.29c-1.792-4.361-6.758-6.434-11.145-4.642
				c-4.361,1.792-6.434,6.775-4.642,11.136L159.952,46.387z"/>
			<path d="M173.008,77.943l13.065,31.539c1.365,3.285,4.548,5.274,7.885,5.274c1.092,0,2.202-0.213,3.268-0.657
				c4.352-1.8,6.417-6.792,4.617-11.153l-13.065-31.539c-1.801-4.352-6.818-6.4-11.153-4.617
				C173.272,68.599,171.207,73.591,173.008,77.943z"/>
			<path d="M138.337,148.642c1.664,1.664,3.849,2.5,6.033,2.5s4.361-0.836,6.033-2.5c3.328-3.337,3.328-8.738,0-12.066
				L102.13,88.302c-3.328-3.336-8.73-3.336-12.066,0c-3.328,3.337-3.328,8.73,0,12.066L138.337,148.642z"/>
			<path d="M5.294,161.493l34.611,14.225c1.067,0.435,2.159,0.649,3.243,0.649c3.354,0,6.545-1.997,7.893-5.299
				c1.792-4.361-0.29-9.344-4.651-11.127l-34.611-14.225c-4.318-1.783-9.353,0.273-11.136,4.642
				C-1.149,154.717,0.933,159.701,5.294,161.493z"/>
			<path d="M25.603,247.466c-4.719,0-8.533,3.823-8.533,8.533c0,4.719,3.814,8.533,8.533,8.533H93.87
				c4.71,0,8.533-3.814,8.533-8.533c0-4.71-3.823-8.533-8.533-8.533H25.603z"/>
		</g>
	</g>
</g>
<g>
</g>
<g>
</g>
<g>
</g>
<g>
</g>
<g>
</g>
<g>
</g>
<g>
</g>
<g>
</g>
<g>
</g>
<g>
</g>
<g>
</g>
<g>
</g>
<g>
</g>
<g>
</g>
<g>
</g>
</svg>
