<?xml version="1.0" encoding="iso-8859-1"?>
<!-- Generator: Adobe Illustrator 19.0.0, SVG Export Plug-In . SVG Version: 6.00 Build 0)  -->
<svg version="1.1" id="Layer_1" xmlns="http://www.w3.org/2000/svg" xmlns:xlink="http://www.w3.org/1999/xlink" x="0px" y="0px"
	 viewBox="0 0 512.009 512.009" style="enable-background:new 0 0 512.009 512.009;" xml:space="preserve">
<g>
	<g>
		<g>
			<path d="M108.54,55.031c1.357,3.285,4.54,5.265,7.885,5.265c1.084,0,2.193-0.205,3.26-0.648
				c4.352-1.809,6.417-6.801,4.617-11.153l-6.528-15.77c-1.801-4.361-6.827-6.4-11.153-4.617c-4.352,1.801-6.417,6.792-4.617,11.153
				L108.54,55.031z"/>
			<path d="M71.633,83.695c1.664,1.664,3.849,2.5,6.033,2.5c2.176,0,4.361-0.836,6.033-2.5c3.328-3.328,3.328-8.738,0-12.066
				L59.55,47.488c-3.328-3.328-8.73-3.328-12.066,0c-3.328,3.337-3.328,8.738,0,12.075L71.633,83.695z"/>
			<path d="M162.138,51.209c4.719,0,8.533-3.823,8.533-8.533V8.533c0-4.71-3.814-8.533-8.533-8.533s-8.533,3.823-8.533,8.533v34.142
				C153.604,47.386,157.419,51.209,162.138,51.209z"/>
			<path d="M76.83,153.293c0.572,0.128,1.152,0.179,1.715,0.179c3.968,0,7.526-2.782,8.354-6.818
				c7.27-35.533,38.912-61.312,75.238-61.312c16.794,0,32.742,5.325,46.123,15.394c3.78,2.833,9.122,2.065,11.955-1.698
				c2.833-3.763,2.082-9.114-1.69-11.947c-16.367-12.305-35.866-18.816-56.388-18.816c-44.39,0-83.063,31.522-91.955,74.948
				C69.227,147.84,72.213,152.354,76.83,153.293z"/>
			<path d="M246.609,86.195c2.185,0,4.369-0.836,6.033-2.5l24.149-24.132c3.328-3.337,3.328-8.738,0-12.075
				c-3.337-3.328-8.738-3.328-12.075,0l-24.141,24.141c-3.328,3.328-3.328,8.738,0,12.066
				C242.249,85.359,244.433,86.195,246.609,86.195z"/>
			<path d="M381.248,163.533c-3.951,2.569-5.069,7.859-2.492,11.81c9.011,13.841,13.781,29.935,13.781,46.532
				c0,4.71,3.814,8.533,8.533,8.533c4.719,0,8.533-3.823,8.533-8.533c0-19.917-5.726-39.228-16.546-55.851
				C390.49,162.074,385.207,160.964,381.248,163.533z"/>
			<path d="M193.771,145.86c-2.628,3.917-1.587,9.216,2.321,11.844c3.908,2.645,9.225,1.579,11.844-2.321
				c22.272-33.178,59.383-52.975,99.268-52.975c65.877,0,119.467,53.589,119.467,119.467c0,10.829-1.442,21.547-4.292,31.864
				c-1.254,4.54,1.408,9.242,5.948,10.496c0.768,0.213,1.527,0.307,2.287,0.307c3.738,0,7.177-2.483,8.218-6.263
				c3.26-11.793,4.907-24.047,4.907-36.403c0-75.281-61.252-136.533-136.533-136.533C261.628,85.342,219.217,107.964,193.771,145.86
				z"/>
			<path d="M204.591,59.639c1.067,0.444,2.167,0.657,3.26,0.657c3.345,0,6.528-1.98,7.885-5.274l6.537-15.761
				c1.801-4.361-0.265-9.352-4.617-11.153c-4.335-1.792-9.353,0.256-11.153,4.617l-6.528,15.77
				C198.174,52.847,200.239,57.839,204.591,59.639z"/>
			<path d="M93.871,409.609h-25.6c-28.237,0-51.2-22.963-51.2-51.2s22.963-51.2,51.2-51.2c4.719,0,8.533-3.823,8.533-8.533
				s-3.814-8.533-8.533-8.533c-37.641,0-68.267,30.626-68.267,68.267c0,37.641,30.626,68.267,68.267,68.267H93.82
				c4.284,0.051,25.651,1.51,25.651,25.6v17.067c0,4.71,3.814,8.533,8.533,8.533c4.719,0,8.533-3.823,8.533-8.533v-17.067
				C136.538,418.526,108.625,409.609,93.871,409.609z"/>
			<path d="M315.738,460.809h-23.817l12.049-21.419c2.321-4.105,0.862-9.31-3.251-11.622c-4.113-2.321-9.327-0.853-11.614,3.26
				l-11.767,20.915l-11.768-20.915c-2.304-4.105-7.501-5.572-11.614-3.251c-4.113,2.313-5.572,7.509-3.251,11.622l12.041,21.41
				h-23.808c-4.719,0-8.533,3.823-8.533,8.533c0,4.71,3.814,8.533,8.533,8.533h23.808l-12.041,21.41
				c-2.321,4.113-0.862,9.31,3.251,11.622c1.323,0.742,2.756,1.101,4.173,1.101c2.987,0,5.879-1.57,7.441-4.352l11.768-20.915
				l11.767,20.915c1.562,2.782,4.454,4.352,7.441,4.352c1.417,0,2.85-0.35,4.173-1.092c4.113-2.313,5.572-7.518,3.251-11.622
				l-12.049-21.419h23.817c4.719,0,8.533-3.823,8.533-8.533C324.271,464.632,320.457,460.809,315.738,460.809z"/>
			<path d="M468.629,240.589c-3.857-2.714-9.173-1.792-11.895,2.048c-2.722,3.849-1.809,9.173,2.048,11.895
				c22.639,16,36.156,42.069,36.156,69.743c0,47.053-38.281,85.333-85.333,85.333h-25.6c-14.763,0-42.667,8.917-42.667,42.667
				c0,4.71,3.814,8.533,8.533,8.533s8.533-3.823,8.533-8.533c0-24.09,21.367-25.549,25.6-25.6h25.6
				c56.465,0,102.4-45.935,102.4-102.4C512.004,291.063,495.791,259.78,468.629,240.589z"/>
			<path d="M206.588,409.609h23.817c4.719,0,8.533-3.823,8.533-8.533c0-4.71-3.814-8.533-8.533-8.533h-23.817l12.049-21.419
				c2.321-4.105,0.862-9.31-3.251-11.622c-4.113-2.321-9.327-0.853-11.614,3.26l-11.767,20.915l-11.767-20.915
				c-2.304-4.096-7.501-5.572-11.614-3.251c-4.113,2.313-5.572,7.509-3.251,11.622l12.041,21.41h-23.808
				c-4.719,0-8.533,3.823-8.533,8.533c0,4.71,3.814,8.533,8.533,8.533h23.808l-12.041,21.41c-2.321,4.113-0.862,9.31,3.251,11.622
				c1.323,0.742,2.756,1.101,4.173,1.101c2.987,0,5.879-1.57,7.441-4.352l11.767-20.915l11.767,20.915
				c1.562,2.782,4.454,4.352,7.441,4.352c1.417,0,2.85-0.35,4.173-1.092c4.113-2.313,5.572-7.518,3.251-11.622L206.588,409.609z"/>
			<path d="M8.538,170.675h34.133c4.719,0,8.533-3.823,8.533-8.533c0-4.71-3.814-8.533-8.533-8.533H8.538
				c-4.719,0-8.533,3.823-8.533,8.533C0.004,166.852,3.819,170.675,8.538,170.675z"/>
			<path d="M32.738,117.769l15.77,6.528c1.067,0.444,2.167,0.657,3.26,0.657c3.345,0,6.528-1.988,7.885-5.274
				c1.801-4.352-0.265-9.344-4.617-11.153l-15.761-6.528c-4.335-1.801-9.353,0.265-11.153,4.617S28.386,115.959,32.738,117.769z"/>
			<path d="M210.377,197.427c3.413-3.251,3.533-8.653,0.282-12.066c-19.524-20.48-45.85-31.753-74.121-31.753
				c-56.465,0-102.4,45.935-102.4,102.4c0,6.289,0.572,12.578,1.698,18.679c0.759,4.113,4.352,6.989,8.388,6.989
				c0.512,0,1.033-0.051,1.553-0.145c4.634-0.853,7.706-5.308,6.844-9.941c-0.939-5.086-1.417-10.334-1.417-15.582
				c0-47.053,38.281-85.333,85.333-85.333c23.569,0,45.5,9.404,61.773,26.462C201.562,200.55,206.955,200.678,210.377,197.427z"/>
			<path d="M79.279,247.475c3.686,0,7.074-2.398,8.175-6.101c3.294-11.025,10.325-20.745,19.814-27.366
				c3.866-2.697,4.813-8.013,2.116-11.878c-2.697-3.857-7.996-4.83-11.878-2.116c-12.646,8.815-22.016,21.777-26.402,36.489
				c-1.348,4.514,1.229,9.267,5.743,10.615C77.658,247.356,78.477,247.475,79.279,247.475z"/>
		</g>
	</g>
</g>
<g>
</g>
<g>
</g>
<g>
</g>
<g>
</g>
<g>
</g>
<g>
</g>
<g>
</g>
<g>
</g>
<g>
</g>
<g>
</g>
<g>
</g>
<g>
</g>
<g>
</g>
<g>
</g>
<g>
</g>
</svg>
