<?xml version="1.0" encoding="iso-8859-1"?>
<!-- Generator: Adobe Illustrator 19.0.0, SVG Export Plug-In . SVG Version: 6.00 Build 0)  -->
<svg version="1.1" id="Layer_1" xmlns="http://www.w3.org/2000/svg" xmlns:xlink="http://www.w3.org/1999/xlink" x="0px" y="0px"
	 viewBox="0 0 512 512" style="enable-background:new 0 0 512 512;" xml:space="preserve">
<g>
	<g>
		<g>
			<path d="M108.535,55.023c1.357,3.285,4.54,5.274,7.885,5.274c1.092,0,2.202-0.213,3.268-0.657
				c4.343-1.801,6.417-6.793,4.617-11.145l-6.536-15.778c-1.801-4.361-6.81-6.409-11.153-4.617
				c-4.343,1.809-6.417,6.801-4.617,11.153L108.535,55.023z"/>
			<path d="M97.502,199.996c-12.638,8.823-22.016,21.777-26.402,36.489c-1.348,4.523,1.229,9.276,5.743,10.624
				c0.811,0.239,1.638,0.35,2.432,0.35c3.686,0,7.074-2.389,8.175-6.093c3.294-11.034,10.325-20.753,19.823-27.366
				c3.866-2.697,4.804-8.021,2.116-11.887C106.692,198.255,101.376,197.291,97.502,199.996z"/>
			<path d="M162.133,51.2c4.719,0,8.533-3.823,8.533-8.533V8.533c0-4.719-3.814-8.533-8.533-8.533S153.6,3.814,153.6,8.533v34.133
				C153.6,47.377,157.414,51.2,162.133,51.2z"/>
			<path d="M204.587,59.639c1.067,0.444,2.176,0.649,3.268,0.649c3.337,0,6.519-1.98,7.876-5.265l6.537-15.77
				c1.801-4.352-0.265-9.344-4.617-11.153c-4.335-1.792-9.344,0.256-11.153,4.617l-6.528,15.77
				C198.17,52.838,200.235,57.83,204.587,59.639z"/>
			<path d="M198.306,197.129c3.251,3.405,8.644,3.533,12.075,0.282c3.405-3.251,3.533-8.653,0.282-12.058
				c-19.524-20.48-45.85-31.753-74.129-31.753c-56.465,0-102.4,45.935-102.4,102.391c0,6.289,0.58,12.578,1.698,18.688
				c0.759,4.113,4.352,6.98,8.388,6.98c0.512,0,1.033-0.043,1.553-0.136c4.634-0.853,7.706-5.308,6.844-9.941
				c-0.939-5.094-1.417-10.334-1.417-15.59c0-47.053,38.289-85.333,85.333-85.333C160.102,170.658,182.033,180.062,198.306,197.129z
				"/>
			<path d="M193.766,145.852c-2.62,3.908-1.579,9.216,2.33,11.836c3.908,2.645,9.216,1.587,11.836-2.321
				c22.281-33.169,59.383-52.975,99.268-52.975c65.877,0,119.467,53.598,119.467,119.475c0,10.82-1.442,21.538-4.292,31.855
				c-1.254,4.548,1.408,9.242,5.956,10.496c0.759,0.213,1.519,0.316,2.278,0.316c3.746,0,7.177-2.483,8.218-6.263
				c3.26-11.802,4.907-24.047,4.907-36.403c0-75.29-61.252-136.542-136.533-136.542C261.623,85.325,219.221,107.955,193.766,145.852
				z"/>
			<path d="M381.244,163.524c-3.951,2.569-5.069,7.851-2.492,11.802c9.02,13.841,13.781,29.935,13.781,46.541
				c0,4.71,3.814,8.533,8.533,8.533s8.533-3.823,8.533-8.533c0-19.917-5.726-39.236-16.546-55.851
				C390.477,162.065,385.203,160.947,381.244,163.524z"/>
			<path d="M246.613,86.195c2.176,0,4.361-0.836,6.033-2.5l24.141-24.141c3.328-3.328,3.328-8.73,0-12.066
				c-3.337-3.336-8.738-3.336-12.066,0L240.58,71.629c-3.336,3.328-3.336,8.73,0,12.066
				C242.244,85.359,244.429,86.195,246.613,86.195z"/>
			<path d="M332.8,409.591h-38.878l21.274-56.73c1.647-4.42-0.589-9.335-4.992-10.991c-4.42-1.647-9.335,0.58-10.991,4.992
				l-25.6,68.267c-0.99,2.628-0.623,5.555,0.973,7.859c1.596,2.304,4.215,3.669,7.014,3.669h35.806l-34.5,55.219
				c-2.5,3.994-1.289,9.259,2.705,11.759c1.408,0.879,2.978,1.297,4.514,1.297c2.842,0,5.623-1.425,7.245-4.019l42.667-68.267
				c1.647-2.628,1.732-5.939,0.23-8.653C338.756,411.281,335.898,409.591,332.8,409.591z"/>
			<path d="M247.467,375.458h-55.322l46.097-107.563c1.86-4.335-0.145-9.352-4.48-11.204c-4.301-1.86-9.353,0.145-11.204,4.471
				l-51.2,119.467c-1.135,2.645-0.853,5.675,0.717,8.064c1.587,2.398,4.258,3.831,7.125,3.831h55.33l-46.106,107.571
				c-1.852,4.335,0.154,9.353,4.489,11.204c1.092,0.478,2.227,0.7,3.354,0.7c3.311,0,6.46-1.946,7.842-5.171l51.2-119.467
				c1.135-2.645,0.862-5.675-0.717-8.064C253.013,376.9,250.334,375.458,247.467,375.458z"/>
			<path d="M204.8,418.125c0-4.71-3.814-8.533-8.533-8.533h-128c-28.228,0-51.2-22.963-51.2-51.2
				c0-28.228,22.972-51.191,51.2-51.191c4.719,0,8.533-3.823,8.533-8.533c0-4.719-3.814-8.533-8.533-8.533
				C30.626,290.133,0,320.751,0,358.391c0,37.649,30.626,68.267,68.267,68.267h128C200.986,426.658,204.8,422.844,204.8,418.125z"/>
			<path d="M468.625,240.58c-3.866-2.722-9.182-1.801-11.887,2.048c-2.731,3.849-1.809,9.173,2.039,11.895
				c22.639,15.991,36.156,42.061,36.156,69.743c0,47.053-38.281,85.325-85.333,85.325h-42.667c-4.719,0-8.533,3.823-8.533,8.533
				c0,4.719,3.814,8.533,8.533,8.533H409.6c56.465,0,102.4-45.935,102.4-102.391C512,291.055,495.787,259.772,468.625,240.58z"/>
			<path d="M8.533,170.667h34.133c4.719,0,8.533-3.823,8.533-8.533c0-4.71-3.823-8.533-8.533-8.533H8.533
				C3.814,153.6,0,157.423,0,162.133C0,166.852,3.823,170.667,8.533,170.667z"/>
			<path d="M71.629,83.695c1.664,1.664,3.849,2.5,6.033,2.5c2.185,0,4.369-0.836,6.033-2.5c3.328-3.337,3.328-8.738,0-12.066
				L59.554,47.488c-3.337-3.336-8.738-3.336-12.066,0c-3.336,3.337-3.336,8.738,0,12.066L71.629,83.695z"/>
			<path d="M76.826,153.293c0.58,0.12,1.152,0.171,1.715,0.171c3.968,0,7.526-2.782,8.354-6.818
				c7.27-35.533,38.912-61.312,75.238-61.312c16.794,0,32.742,5.325,46.123,15.394c3.789,2.825,9.131,2.074,11.955-1.69
				c2.833-3.763,2.082-9.114-1.681-11.947c-16.367-12.314-35.874-18.825-56.397-18.825c-44.39,0-83.063,31.522-91.955,74.957
				C69.231,147.84,72.209,152.354,76.826,153.293z"/>
			<path d="M32.734,117.76l15.77,6.528c1.067,0.444,2.176,0.657,3.268,0.657c3.337,0,6.519-1.988,7.876-5.274
				c1.801-4.352-0.265-9.344-4.617-11.145l-15.761-6.528c-4.335-1.792-9.353,0.256-11.153,4.617
				C26.317,110.967,28.382,115.959,32.734,117.76z"/>
		</g>
	</g>
</g>
<g>
</g>
<g>
</g>
<g>
</g>
<g>
</g>
<g>
</g>
<g>
</g>
<g>
</g>
<g>
</g>
<g>
</g>
<g>
</g>
<g>
</g>
<g>
</g>
<g>
</g>
<g>
</g>
<g>
</g>
</svg>
