<?xml version="1.0" encoding="iso-8859-1"?>
<!-- Generator: Adobe Illustrator 19.0.0, SVG Export Plug-In . SVG Version: 6.00 Build 0)  -->
<svg version="1.1" id="Layer_1" xmlns="http://www.w3.org/2000/svg" xmlns:xlink="http://www.w3.org/1999/xlink" x="0px" y="0px"
	 viewBox="0 0 512.011 512.011" style="enable-background:new 0 0 512.011 512.011;" xml:space="preserve">
<g>
	<g>
		<g>
			<path d="M138.344,148.645c1.664,1.664,3.849,2.5,6.033,2.5c2.176,0,4.361-0.836,6.033-2.5c3.328-3.337,3.328-8.73,0-12.066
				l-48.273-48.273c-3.328-3.328-8.73-3.328-12.066,0c-3.328,3.336-3.328,8.738,0,12.066L138.344,148.645z"/>
			<path d="M159.959,46.399c1.357,3.294,4.531,5.291,7.893,5.291c1.075,0,2.176-0.213,3.243-0.648
				c4.361-1.792,6.434-6.776,4.642-11.136L161.495,5.293c-1.792-4.36-6.767-6.451-11.136-4.642
				c-4.361,1.792-6.434,6.775-4.642,11.136L159.959,46.399z"/>
			<path d="M71.417,188.786l31.539,13.065c1.075,0.444,2.176,0.657,3.26,0.657c3.354,0,6.528-1.988,7.893-5.274
				c1.801-4.352-0.265-9.344-4.617-11.153l-31.548-13.065c-4.369-1.801-9.344,0.265-11.145,4.617
				C64.991,181.985,67.056,186.977,71.417,188.786z"/>
			<path d="M418.143,247.478c-4.719,0-8.533,3.814-8.533,8.533c0,4.71,3.814,8.533,8.533,8.533h68.267
				c4.71,0,8.533-3.823,8.533-8.533c0-4.719-3.823-8.533-8.533-8.533H418.143z"/>
			<path d="M25.61,247.478c-4.719,0-8.533,3.814-8.533,8.533c0,4.71,3.814,8.533,8.533,8.533h68.267c4.71,0,8.533-3.823,8.533-8.533
				c0-4.719-3.823-8.533-8.533-8.533H25.61z"/>
			<path d="M39.903,336.276L5.292,350.518c-4.361,1.792-6.434,6.775-4.642,11.136c1.348,3.294,4.54,5.291,7.893,5.291
				c1.084,0,2.176-0.205,3.243-0.648l34.611-14.234c4.352-1.792,6.434-6.784,4.642-11.136
				C49.247,336.566,44.272,334.484,39.903,336.276z"/>
			<path d="M173.015,77.946l13.065,31.539c1.365,3.285,4.54,5.274,7.893,5.274c1.084,0,2.193-0.213,3.26-0.657
				c4.352-1.801,6.417-6.793,4.617-11.145l-13.065-31.539c-1.809-4.361-6.81-6.417-11.153-4.617
				C173.279,68.602,171.214,73.594,173.015,77.946z"/>
			<path d="M5.301,161.496l34.611,14.225c1.058,0.444,2.159,0.648,3.243,0.648c3.354,0,6.537-1.997,7.893-5.299
				c1.792-4.352-0.29-9.335-4.651-11.127l-34.62-14.225C7.434,143.909,2.433,146,0.65,150.369
				C-1.142,154.721,0.932,159.704,5.301,161.496z"/>
			<path d="M367.643,148.645c1.664,1.664,3.849,2.5,6.033,2.5c2.176,0,4.361-0.836,6.033-2.5l42.231-42.24
				c3.337-3.328,3.337-8.73,0-12.066c-3.336-3.328-8.738-3.328-12.066,0l-42.231,42.24
				C364.306,139.915,364.306,145.308,367.643,148.645z"/>
			<path d="M114.118,314.789c-1.809-4.352-6.801-6.426-11.153-4.617l-31.548,13.065c-4.352,1.792-6.426,6.784-4.617,11.145
				c1.357,3.285,4.531,5.274,7.885,5.274c1.084,0,2.193-0.213,3.26-0.657l31.548-13.065
				C113.845,324.133,115.918,319.15,114.118,314.789z"/>
			<path d="M468.865,176.378c1.084,0,2.185-0.205,3.243-0.649l34.611-14.234c4.361-1.792,6.434-6.775,4.642-11.136
				c-1.783-4.352-6.775-6.451-11.136-4.642l-34.603,14.234c-4.361,1.792-6.443,6.775-4.651,11.136
				C462.329,174.382,465.512,176.378,468.865,176.378z"/>
			<path d="M340.942,51.049c1.058,0.435,2.159,0.64,3.234,0.64c3.362,0,6.545-1.997,7.893-5.291l14.225-34.611
				c1.792-4.361-0.282-9.344-4.651-11.136c-4.344-1.809-9.335,0.282-11.127,4.642l-14.225,34.611
				C334.5,44.274,336.573,49.257,340.942,51.049z"/>
			<path d="M314.796,114.111c1.067,0.435,2.167,0.649,3.26,0.649c3.345,0,6.528-1.988,7.885-5.274l13.056-31.539
				c1.809-4.352-0.265-9.344-4.617-11.145c-4.352-1.801-9.352,0.256-11.145,4.617l-13.065,31.548
				C308.371,107.318,310.436,112.31,314.796,114.111z"/>
			<path d="M256.01,102.411c4.71,0,8.533-3.823,8.533-8.533V34.145c0-4.719-3.823-8.533-8.533-8.533
				c-4.719,0-8.533,3.814-8.533,8.533v59.733C247.477,98.588,251.291,102.411,256.01,102.411z"/>
			<path d="M397.911,197.234c1.365,3.285,4.54,5.274,7.893,5.274c1.084,0,2.193-0.213,3.26-0.657l31.531-13.065
				c4.361-1.809,6.426-6.801,4.617-11.153c-1.801-4.361-6.793-6.417-11.145-4.617l-31.539,13.065
				C398.175,187.89,396.11,192.882,397.911,197.234z"/>
			<path d="M254.764,392.536c4.113,0.043,8.175-0.137,12.749-0.563l6.46,12.919c2.893,5.786,12.373,5.786,15.266,0l9.643-19.277
				c12.006-3.977,23.347-9.6,33.86-16.785l0.964,1.92c1.442,2.893,4.403,4.727,7.637,4.727c3.226,0,6.187-1.826,7.629-4.719
				l16.794-33.587c17.519-23.629,26.778-51.669,26.778-81.161c0-75.29-61.252-136.533-136.533-136.533
				c-75.29,0-136.533,61.244-136.533,136.533c0,34.927,13.218,68.113,37.248,93.585l14.848,29.696
				c1.442,2.893,4.403,4.719,7.637,4.719c3.226,0,6.187-1.826,7.629-4.719l2.176-4.36c6.502,3.661,13.32,6.784,20.395,9.344
				c-2.799,5.385-4.599,10.701-4.599,16.802c0,14.114,11.477,25.6,25.6,25.6c14.114,0,25.6-11.486,25.6-25.6
				C256.01,398.083,255.566,395.284,254.764,392.536z M241.734,374.539c-3.26-0.418-6.451,1.118-8.209,3.874
				c-1.766,2.765-1.792,6.289-0.068,9.079c4.096,6.647,5.487,10.078,5.487,13.585c0,4.702-3.831,8.533-8.533,8.533
				c-4.71,0-8.533-3.831-8.533-8.533c0-4.087,1.766-8.073,7.552-17.05c1.476-2.287,1.766-5.137,0.802-7.671
				c-0.973-2.543-3.098-4.463-5.717-5.18c-12.322-3.379-23.851-8.593-34.261-15.479c-1.417-0.93-3.055-1.417-4.71-1.417
				c-0.742,0-1.485,0.094-2.21,0.29c-1.493,0.401-2.833,1.195-3.9,2.278l-8.013-16.026c-0.384-0.768-0.879-1.476-1.476-2.099
				c-21.538-22.4-33.399-51.78-33.399-82.714c0-65.877,53.589-119.467,119.467-119.467c65.869,0,119.467,53.589,119.467,119.467
				c0,26.078-8.277,50.867-23.927,71.671c-0.452,0.597-0.819,1.254-1.092,1.937l-9.677,19.354c-0.922-0.657-1.971-1.126-3.106-1.374
				c-2.509-0.555-5.154,0.051-7.159,1.664c-12.075,9.651-25.566,16.759-40.107,21.129c-2.253,0.674-4.122,2.253-5.18,4.352
				l-3.618,7.253l-1.493-2.987c-1.63-3.251-5.197-5.137-8.721-4.642C259.935,375.836,252.477,375.828,241.734,374.539z"/>
			<path d="M338.971,434.008l-11.639-27.46c-1.835-4.343-6.844-6.374-11.187-4.531c-4.343,1.843-6.366,6.852-4.531,11.187
				l11.639,27.46c1.382,3.26,4.54,5.214,7.868,5.214c1.109,0,2.236-0.222,3.319-0.683
				C338.783,443.352,340.814,438.343,338.971,434.008z"/>
			<path d="M288.812,430.638c-1.553-2.449-4.25-3.942-7.151-3.959c-3.029,0.137-5.615,1.442-7.202,3.874l-4.036,6.144
				c-8.994,13.645-14.413,21.871-14.413,32.649c0,14.114,11.477,25.6,25.6,25.6c14.114,0,25.6-11.486,25.6-25.6
				c0-10.308-4.941-17.903-13.107-30.49C292.49,436.38,290.732,433.667,288.812,430.638z M281.61,477.878
				c-4.71,0-8.533-3.831-8.533-8.533c0-4.693,2.492-9.276,8.465-18.483c6.093,9.438,8.602,13.858,8.602,18.483
				C290.143,474.047,286.312,477.878,281.61,477.878z"/>
			<path d="M352.036,465.582c-1.809-4.352-6.81-6.383-11.162-4.582c-4.343,1.818-6.4,6.81-4.582,11.162l14.242,34.074
				c1.365,3.268,4.54,5.248,7.876,5.248c1.092,0,2.21-0.222,3.285-0.666c4.352-1.818,6.4-6.818,4.582-11.17L352.036,465.582z"/>
			<path d="M379.709,365.87c-3.337-3.337-8.738-3.337-12.066,0c-3.337,3.337-3.337,8.738,0,12.066l48.264,48.273
				c1.664,1.664,3.849,2.5,6.033,2.5c2.185,0,4.369-0.836,6.033-2.5c3.337-3.337,3.337-8.738,0-12.066L379.709,365.87z"/>
			<path d="M506.711,350.518l-34.603-14.225c-4.352-1.792-9.344,0.29-11.136,4.651c-1.792,4.361,0.29,9.344,4.651,11.136
				l34.611,14.217c1.058,0.444,2.159,0.648,3.234,0.648c3.362,0,6.545-1.997,7.893-5.299
				C513.153,357.294,511.08,352.31,506.711,350.518z"/>
			<path d="M150.41,365.87c-3.337-3.337-8.738-3.337-12.066,0l-48.273,48.273c-3.328,3.328-3.328,8.73,0,12.066
				c1.673,1.664,3.849,2.5,6.033,2.5c2.185,0,4.369-0.836,6.033-2.5l48.273-48.273C153.738,374.608,153.738,369.206,150.41,365.87z"
				/>
			<path d="M440.595,323.237l-31.539-13.073c-4.352-1.801-9.344,0.264-11.153,4.617c-1.801,4.361,0.265,9.344,4.617,11.153
				l31.548,13.073c1.067,0.435,2.176,0.649,3.26,0.649c3.354,0,6.528-1.98,7.885-5.265
				C447.02,330.03,444.955,325.038,440.595,323.237z"/>
			<path d="M190.96,412.641c-4.378-1.792-9.344,0.316-11.127,4.676l-6.835,16.802c-1.775,4.361,0.316,9.344,4.676,11.119
				c1.058,0.435,2.15,0.64,3.217,0.64c3.371,0,6.562-2.014,7.91-5.316l6.844-16.802C197.42,419.399,195.321,414.416,190.96,412.641z
				"/>
			<path d="M302.431,184.391c12.604,8.192,22.861,19.584,29.67,32.947c1.502,2.961,4.497,4.659,7.612,4.659
				c1.297,0,2.62-0.299,3.866-0.93c4.198-2.142,5.862-7.279,3.729-11.477c-8.166-16.026-20.471-29.687-35.576-39.509
				c-3.968-2.569-9.242-1.442-11.802,2.509C297.354,176.54,298.48,181.823,302.431,184.391z"/>
			<path d="M171.069,460.974c-4.343-1.792-9.344,0.282-11.128,4.642l-14.225,34.611c-1.792,4.361,0.282,9.344,4.651,11.136
				c1.058,0.444,2.159,0.649,3.234,0.649c3.362,0,6.545-1.997,7.893-5.291l14.225-34.611
				C177.512,467.749,175.438,462.766,171.069,460.974z"/>
			<path d="M298.677,341.345c14.114,0,25.6-11.486,25.6-25.6c0-4.719-3.823-8.533-8.533-8.533c-4.719,0-8.533,3.814-8.533,8.533
				c0,4.702-3.831,8.533-8.533,8.533c-4.71,0-8.533-3.831-8.533-8.533c0-4.719-3.823-8.533-8.533-8.533
				c-4.719,0-8.533,3.814-8.533,8.533C273.077,329.859,284.554,341.345,298.677,341.345z"/>
			<path d="M230.41,324.278c-4.719,0-8.533,3.831-8.533,8.542v-0.008c0-4.719-3.823-8.533-8.533-8.533
				c-4.719,0-8.533,3.814-8.533,8.533c0,9.412,7.654,17.067,17.067,17.067c9.412,0,17.067-7.654,17.067-17.067
				C238.943,328.092,235.12,324.278,230.41,324.278z"/>
			<path d="M196.277,290.145c-4.719,0-8.533,3.831-8.533,8.542v-0.009c0-4.719-3.823-8.533-8.533-8.533
				c-4.719,0-8.533,3.814-8.533,8.533c0,9.412,7.654,17.067,17.067,17.067s17.067-7.654,17.067-17.067
				C204.81,293.959,200.987,290.145,196.277,290.145z"/>
		</g>
	</g>
</g>
<g>
</g>
<g>
</g>
<g>
</g>
<g>
</g>
<g>
</g>
<g>
</g>
<g>
</g>
<g>
</g>
<g>
</g>
<g>
</g>
<g>
</g>
<g>
</g>
<g>
</g>
<g>
</g>
<g>
</g>
</svg>
